<?xml version="1.0"?>
<svg width="1200" height="1200" xmlns="http://www.w3.org/2000/svg" xmlns:svg="http://www.w3.org/2000/svg" xmlns:xlink="http://www.w3.org/1999/xlink">
 <!-- Created with SVG-edit - https://github.com/SVG-Edit/svgedit-->
 <defs>
  <symbol height="800px" id="svg_7" version="1.1" viewBox="0 0 32 32" width="800px" xmlns="http://www.w3.org/2000/svg">
   <g id="svg_6" stroke-width="0"/>
   <g id="svg_5" stroke-linecap="round" stroke-linejoin="round"/>
   <g id="svg_4">
    <title>feather-wing</title>
    <path d="m28.66,25.54c-1.96,-1.1 -3.11,-2.97 -3.23,-4.68c-0.62,-9.16 -15.89,-10.35 -23.66,-19.51l0,0c0.4,11.67 13.21,11.61 20.75,17.45c-4.88,-2.11 -12.88,-1.65 -18.67,-5.4c2.7,8.77 12.33,5.89 19.41,8.27c-4.22,-0.41 -9.77,1.97 -15.02,0.09c4.63,7.31 10.65,2.42 16.48,2.47c-2.94,0.75 -5.98,4.02 -10.04,3.71c4.95,4.76 7.54,0.14 11.08,-1.63c-0.35,0.43 -0.58,0.97 -0.61,1.57c-0.06,1.44 1.06,2.66 2.5,2.73s2.66,-1.06 2.73,-2.5c0.05,-1.17 -0.67,-2.19 -1.72,-2.57z"/>
   </g>
  </symbol>
  <linearGradient fx="0" fy="0" id="svg_13" x1="0.12" x2="0.89" y1="0.14" y2="0.31">
   <stop id="jq_stop_818" offset="0" stop-color="#ffffff"/>
   <stop id="jq_stop_7755" offset="1" stop-color="#ffffff" stop-opacity="1"/>
  </linearGradient>
 </defs>
 <g class="layer">
  <title>Layer 1</title>
  <use fill="url(#svg_13)" id="svg_8" transform="rotate(14.8934 648.476 561.916) matrix(-1.0124 0 0 1.19286 -2191.16 3173.22)" x="-3206.77" xlink:href="#svg_7" y="-2588.65"/>
 </g>
</svg>